# xmcd
#
# Track frame offsets:
#	150
#	12352
#	26036
#	38684
#	51948
#	68912
#	87976
#	97525
#	120715
#	132144
#	151994
#	171214
#
# Disc length: 2456 seconds
#
# Revision: 1
# Processed by: cddbd v1.5.2PL0 Copyright (c) Steve Scherf et al.
# Submitted via: audiograbber 1.83.01
#
DISCID=9009960c
DTITLE=Hank Lennart and the Sentimental Cowboys - Mama - Don't Let Your Babies Gr
DTITLE=ow Up To Be Cowboys
DYEAR=2006
DGENRE=Country
TTITLE0=Workin' Man Blues
TTITLE1=Mama Don't Let Your Babies Grow Up To Be Cowboys
TTITLE2=Your Captain
TTITLE3=Ooh Las Vegas
TTITLE4=Faraway Eyes
TTITLE5=Whiskey Girl
TTITLE6=Girl On My Hips
TTITLE7=A Boy Named Sue
TTITLE8=Guitar Man
TTITLE9=Dead Flowers
TTITLE10=Månkarbo
TTITLE11=Timrå Tisdag
EXTD=
EXTT0=
EXTT1=
EXTT2=
EXTT3=
EXTT4=
EXTT5=
EXTT6=
EXTT7=
EXTT8=
EXTT9=
EXTT10=
EXTT11=
PLAYORDER=
